{"title":"Woodstock.Directors.Cut.1970.720p.BluRay.x264-VOA","uid":6482557,"size":8527743877,"categoryP":"video","categoryS":"hd___movies","magnet":"?xt=urn:btih:db082e4a56149af44c485169a0498a5ad921dd3c&amp;dn=Woodstock.Directors.Cut.1970.720p.BluRay.x264-VOA&amp;tr=udp%3A%2F%2Ftracker.openbittorrent.com%3A80&amp;tr=udp%3A%2F%2Fopen.demonii.com%3A1337&amp;tr=udp%3A%2F%2Ftracker.coppersurfer.tk%3A6969&amp;tr=udp%3A%2F%2Fexodus.desync.com%3A6969","seeders":9,"leechers":2,"uploader":"mfccorrea","files":5,"time":1308584421,"description":"Woodstock is a 1970 American documentary on the Woodstock Festival that took place in August 1969 at Bethel in New York. Entertainment Weekly called this film the benchmark of concert movies and one of the most entertaining documentaries ever made. The film was directed by Michael Wadleigh and was edited by (amongst others) Martin Scorsese and Thelma Schoonmaker; Schoonmaker was nominated for an Academy Award for Film Editing.\n\nIt received the Academy Award for Best Documentary Feature, as well as a nomination for Best Sound. The film was also screened at the 1970 Cannes Film Festival, but wasn't entered into the main competition. The Official Director's Cut, spanning 225 minutes, was released in 1994.\n\nGeneral\nComplete name                    : voa-wood_dc_720p_x264.mkv\nFormat                           : Matroska\nFile size                        : 7.94 GiB\nDuration                         : 3h 44mn\nOverall bit rate                 : 5 067 Kbps\nEncoded date                     : UTC 2009-06-08 16:28:12\nWriting application              : mkvmerge v2.4.2 ('Oh My God') built on Jan 18 2009 17:30:28\nWriting library                  : libebml v0.7.7 + libmatroska v0.8.1\n\nVideo\nID                               : 1\nFormat                           : AVC\nFormat/Info                      : Advanced Video Codec\nFormat profile                   : &lt;a class=&quot;__cf_email__&quot; href=&quot;/cdn-cgi/l/email-protection&quot; data-cfemail=&quot;155d7c727d5559213b24&quot;&gt;[email&amp;#160;protected]&lt;/a&gt;&lt;script cf-hash='f9e31' type=&quot;text/javascript&quot;&gt;\n/* &lt;![CDATA[ */!function(){try{var t=&quot;currentScript&quot;in document?document.currentScript:function(){for(var t=document.getElementsByTagName(&quot;script&quot;),e=t.length;e--;)if(t[e].getAttribute(&quot;cf-hash&quot;))return t[e]}();if(t&amp;&amp;t.previousSibling){var e,r,n,i,c=t.previousSibling,a=c.getAttribute(&quot;data-cfemail&quot;);if(a){for(e=&quot;&quot;,r=parseInt(a.substr(0,2),16),n=2;a.length-n;n+=2)i=parseInt(a.substr(n,2),16)^r,e+=String.fromCharCode(i);e=document.createTextNode(e),c.parentNode.replaceChild(e,c)}}}catch(u){}}();/* ]]&gt; */&lt;/script&gt;\nFormat settings, CABAC           : Yes\nFormat settings, ReFrames        : 5 frames\nCodec ID                         : V_MPEG4/ISO/AVC\nDuration                         : 3h 44mn\nBit rate                         : 4 425 Kbps\nWidth                            : 1 280 pixels\nHeight                           : 528 pixels\nDisplay aspect ratio             : 2.40:1\nFrame rate                       : 23.976 fps\nColor space                      : YUV\nChroma subsampling               : 4:2:0\nBit depth                        : 8 bits\nScan type                        : Progressive\nBits/(Pixel*Frame)               : 0.273\nStream size                      : 6.78 GiB (85%)\nWriting library                  : x264 core 67 r1163 3f56e27\n\nAudio\nID                               : 2\nFormat                           : AC-3\nFormat/Info                      : Audio Coding 3\nMode extension                   : CM (complete main)\nCodec ID                         : A_AC3\nDuration                         : 3h 44mn\nBit rate mode                    : Constant\nBit rate                         : 640 Kbps\nChannel(s)                       : 6 channels\nChannel positions                : Front: L C R, Side: L R, LFE\nSampling rate                    : 48.0 KHz\nBit depth                        : 16 bits\nCompression mode                 : Lossy\nStream size                      : 1.00 GiB (13%)\nLanguage                         : English\n &lt;a href=&quot;\nhttp://www.imdb.com/title/tt0066580/&quot; rel=&quot;nofollow&quot; target=&quot;_NEW&quot;&gt;\nhttp://www.imdb.com/title/tt0066580/&lt;/a&gt;\n\nEnglish audio; English, French, Spanish and Portuguese subtitles\n\n\n\n","torrent":{"xt":"urn:btih:db082e4a56149af44c485169a0498a5ad921dd3c","amp;dn":"Woodstock.Directors.Cut.1970.720p.BluRay.x264-VOA","amp;tr":["udp%3A%2F%2Ftracker.openbittorrent.com%3A80","udp%3A%2F%2Fopen.demonii.com%3A1337","udp%3A%2F%2Ftracker.coppersurfer.tk%3A6969","udp%3A%2F%2Fexodus.desync.com%3A6969"],"infoHash":"db082e4a56149af44c485169a0498a5ad921dd3c","infoHashBuffer":{"type":"Buffer","data":[219,8,46,74,86,20,154,244,76,72,81,105,160,73,138,90,217,33,221,60]},"announce":[],"urlList":[]}}